<mxfile host="app.diagrams.net" agent="Mozilla/5.0 (Windows NT 10.0; Win64; x64) AppleWebKit/537.36 (KHTML, like Gecko) Chrome/140.0.0.0 Safari/537.36 Edg/140.0.0.0" version="28.2.5">
  <diagram name="페이지-1" id="cujB89Nn0_y02uTzkY7z">
    <mxGraphModel dx="893" dy="672" grid="1" gridSize="10" guides="1" tooltips="1" connect="1" arrows="1" fold="1" page="1" pageScale="1" pageWidth="827" pageHeight="1169" math="0" shadow="0">
      <root>
        <mxCell id="0" />
        <mxCell id="1" parent="0" />
        <mxCell id="slpt_HafG_ylR43de846-1" value="" style="rounded=0;whiteSpace=wrap;html=1;rotation=90;" vertex="1" parent="1">
          <mxGeometry x="260" y="180" width="240" height="200" as="geometry" />
        </mxCell>
        <mxCell id="slpt_HafG_ylR43de846-2" value="&lt;span style=&quot;font-size: 10px;&quot;&gt;Wordline&lt;/span&gt;" style="rounded=0;whiteSpace=wrap;html=1;fillColor=#d5e8d4;strokeColor=#000000;fontFamily=Pretendard;fontSource=https%3A%2F%2Fcdn.jsdelivr.net%2Fgh%2FProject-Noonnu%2Fnoonfonts_2107%401.1%2FPretendard-Regular.woff;" vertex="1" parent="1">
          <mxGeometry x="419.7" y="160" width="60.3" height="40" as="geometry" />
        </mxCell>
        <mxCell id="slpt_HafG_ylR43de846-3" value="&lt;font style=&quot;font-size: 10px;&quot; data-font-src=&quot;https://cdn.jsdelivr.net/gh/Project-Noonnu/noonfonts_2107@1.1/Pretendard-Regular.woff&quot; face=&quot;Pretendard&quot;&gt;Wordline&lt;/font&gt;" style="rounded=0;whiteSpace=wrap;html=1;fillColor=#d5e8d4;strokeColor=#000000;" vertex="1" parent="1">
          <mxGeometry x="280.001" y="160" width="60.5" height="40" as="geometry" />
        </mxCell>
        <mxCell id="slpt_HafG_ylR43de846-4" value="" style="shape=or;whiteSpace=wrap;html=1;rotation=-90;fillColor=#d5e8d4;strokeColor=#000000;" vertex="1" parent="1">
          <mxGeometry x="357.5" y="37.5" width="45" height="200" as="geometry" />
        </mxCell>
        <mxCell id="slpt_HafG_ylR43de846-5" value="" style="shape=or;whiteSpace=wrap;html=1;rotation=270;fillColor=#e1d5e7;strokeColor=#9673a6;" vertex="1" parent="1">
          <mxGeometry x="365.2" y="106.47" width="29" height="79.6" as="geometry" />
        </mxCell>
        <mxCell id="slpt_HafG_ylR43de846-6" value="" style="shape=or;whiteSpace=wrap;html=1;rotation=270;fillColor=#fff2cc;strokeColor=#d6b656;" vertex="1" parent="1">
          <mxGeometry x="366.8" y="114.87" width="25.8" height="69.9" as="geometry" />
        </mxCell>
        <mxCell id="slpt_HafG_ylR43de846-7" value="" style="shape=or;whiteSpace=wrap;html=1;rotation=270;fillColor=#f5f5f5;strokeColor=#666666;fontColor=#333333;" vertex="1" parent="1">
          <mxGeometry x="370.75" y="121.03" width="18" height="59.5" as="geometry" />
        </mxCell>
        <mxCell id="slpt_HafG_ylR43de846-8" value="." style="shape=or;whiteSpace=wrap;html=1;rotation=270;fillColor=#dae8fc;strokeColor=#6c8ebf;" vertex="1" parent="1">
          <mxGeometry x="372.74" y="128.29999999999998" width="14" height="49.55" as="geometry" />
        </mxCell>
        <mxCell id="slpt_HafG_ylR43de846-9" value="" style="shape=or;whiteSpace=wrap;html=1;rotation=-90;fillColor=#bac8d3;strokeColor=#23445d;" vertex="1" parent="1">
          <mxGeometry x="375" y="135" width="10" height="40" as="geometry" />
        </mxCell>
        <mxCell id="slpt_HafG_ylR43de846-10" value="&lt;span style=&quot;font-family: Pretendard; font-size: 10px;&quot;&gt;Wordline&lt;/span&gt;" style="rounded=0;whiteSpace=wrap;html=1;fillColor=#d5e8d4;strokeColor=#000000;" vertex="1" parent="1">
          <mxGeometry x="280" y="320" width="60.5" height="40" as="geometry" />
        </mxCell>
        <mxCell id="slpt_HafG_ylR43de846-11" value="&lt;span style=&quot;font-family: Pretendard; font-size: 10px;&quot;&gt;Wordline&lt;/span&gt;" style="rounded=0;whiteSpace=wrap;html=1;fillColor=#d5e8d4;strokeColor=#000000;" vertex="1" parent="1">
          <mxGeometry x="280" y="240" width="60.5" height="40" as="geometry" />
        </mxCell>
        <mxCell id="slpt_HafG_ylR43de846-12" value="" style="rounded=0;whiteSpace=wrap;html=1;rotation=90;fillColor=#e1d5e7;strokeColor=#9673a6;align=center;horizontal=0;fontSize=10;fontFamily=Pretendard;fontSource=https%3A%2F%2Fcdn.jsdelivr.net%2Fgh%2FProject-Noonnu%2Fnoonfonts_2107%401.1%2FPretendard-Regular.woff;" vertex="1" parent="1">
          <mxGeometry x="222.4" y="277.5" width="240" height="5" as="geometry" />
        </mxCell>
        <mxCell id="slpt_HafG_ylR43de846-13" value="" style="rounded=0;whiteSpace=wrap;html=1;rotation=90;fillColor=#fff2cc;strokeColor=#d6b656;align=center;horizontal=0;fontSize=10;fontFamily=Pretendard;fontSource=https%3A%2F%2Fcdn.jsdelivr.net%2Fgh%2FProject-Noonnu%2Fnoonfonts_2107%401.1%2FPretendard-Regular.woff;" vertex="1" parent="1">
          <mxGeometry x="227.4" y="277.5" width="240" height="5" as="geometry" />
        </mxCell>
        <mxCell id="slpt_HafG_ylR43de846-14" value="" style="rounded=0;whiteSpace=wrap;html=1;rotation=90;fillColor=#f5f5f5;strokeColor=#666666;align=center;horizontal=0;fontSize=10;fontFamily=Pretendard;fontSource=https%3A%2F%2Fcdn.jsdelivr.net%2Fgh%2FProject-Noonnu%2Fnoonfonts_2107%401.1%2FPretendard-Regular.woff;fontColor=#333333;" vertex="1" parent="1">
          <mxGeometry x="232.5" y="277.5" width="240" height="5" as="geometry" />
        </mxCell>
        <mxCell id="slpt_HafG_ylR43de846-15" value="" style="rounded=0;whiteSpace=wrap;html=1;rotation=90;fillColor=#dae8fc;strokeColor=#6c8ebf;align=center;horizontal=0;fontSize=10;fontFamily=Pretendard;fontSource=https%3A%2F%2Fcdn.jsdelivr.net%2Fgh%2FProject-Noonnu%2Fnoonfonts_2107%401.1%2FPretendard-Regular.woff;" vertex="1" parent="1">
          <mxGeometry x="237.5" y="277.5" width="240" height="5" as="geometry" />
        </mxCell>
        <mxCell id="slpt_HafG_ylR43de846-16" value="&lt;span style=&quot;font-size: 10px;&quot;&gt;Wordline&lt;/span&gt;" style="rounded=0;whiteSpace=wrap;html=1;fillColor=#d5e8d4;strokeColor=#000000;fontFamily=Pretendard;fontSource=https%3A%2F%2Fcdn.jsdelivr.net%2Fgh%2FProject-Noonnu%2Fnoonfonts_2107%401.1%2FPretendard-Regular.woff;" vertex="1" parent="1">
          <mxGeometry x="419.5" y="240" width="60.5" height="40" as="geometry" />
        </mxCell>
        <mxCell id="slpt_HafG_ylR43de846-17" value="&lt;span style=&quot;font-family: Pretendard; font-size: 10px;&quot;&gt;Wordline&lt;/span&gt;" style="rounded=0;whiteSpace=wrap;html=1;fillColor=#d5e8d4;strokeColor=#000000;movable=1;resizable=1;rotatable=1;deletable=1;editable=1;locked=0;connectable=1;" vertex="1" parent="1">
          <mxGeometry x="419.5" y="320" width="60.5" height="40" as="geometry" />
        </mxCell>
        <mxCell id="slpt_HafG_ylR43de846-18" value="" style="rounded=0;whiteSpace=wrap;html=1;rotation=90;fillColor=#e1d5e7;strokeColor=#9673a6;align=center;horizontal=0;fontSize=10;fontFamily=Pretendard;fontSource=https%3A%2F%2Fcdn.jsdelivr.net%2Fgh%2FProject-Noonnu%2Fnoonfonts_2107%401.1%2FPretendard-Regular.woff;" vertex="1" parent="1">
          <mxGeometry x="297" y="277.5" width="240" height="5" as="geometry" />
        </mxCell>
        <mxCell id="slpt_HafG_ylR43de846-19" value="" style="rounded=0;whiteSpace=wrap;html=1;rotation=90;fillColor=#fff2cc;strokeColor=#d6b656;align=center;horizontal=0;fontSize=10;fontFamily=Pretendard;fontSource=https%3A%2F%2Fcdn.jsdelivr.net%2Fgh%2FProject-Noonnu%2Fnoonfonts_2107%401.1%2FPretendard-Regular.woff;" vertex="1" parent="1">
          <mxGeometry x="292" y="277.5" width="240" height="5" as="geometry" />
        </mxCell>
        <mxCell id="slpt_HafG_ylR43de846-20" value="" style="rounded=0;whiteSpace=wrap;html=1;rotation=90;fillColor=#f5f5f5;strokeColor=#666666;align=center;horizontal=0;fontSize=10;fontFamily=Pretendard;fontSource=https%3A%2F%2Fcdn.jsdelivr.net%2Fgh%2FProject-Noonnu%2Fnoonfonts_2107%401.1%2FPretendard-Regular.woff;fontColor=#333333;" vertex="1" parent="1">
          <mxGeometry x="287" y="277.5" width="240" height="5" as="geometry" />
        </mxCell>
        <mxCell id="slpt_HafG_ylR43de846-21" value="" style="rounded=0;whiteSpace=wrap;html=1;rotation=90;fillColor=#dae8fc;strokeColor=#6c8ebf;align=center;horizontal=0;fontSize=10;fontFamily=Pretendard;fontSource=https%3A%2F%2Fcdn.jsdelivr.net%2Fgh%2FProject-Noonnu%2Fnoonfonts_2107%401.1%2FPretendard-Regular.woff;" vertex="1" parent="1">
          <mxGeometry x="282" y="277.5" width="240" height="5" as="geometry" />
        </mxCell>
        <mxCell id="slpt_HafG_ylR43de846-22" value="&lt;font style=&quot;font-size: 7px;&quot;&gt;&quot;Maca&lt;/font&gt;&lt;span style=&quot;background-color: transparent; color: light-dark(rgb(0, 0, 0), rgb(255, 255, 255));&quot;&gt;&lt;font style=&quot;font-size: 7px;&quot;&gt;roni&quot;&lt;/font&gt; Oxide Filler&lt;/span&gt;" style="rounded=0;whiteSpace=wrap;html=1;rotation=90;fillColor=#bac8d3;strokeColor=#23445d;align=center;horizontal=0;fontSize=10;fontFamily=Pretendard;fontSource=https%3A%2F%2Fcdn.jsdelivr.net%2Fgh%2FProject-Noonnu%2Fnoonfonts_2107%401.1%2FPretendard-Regular.woff;" vertex="1" parent="1">
          <mxGeometry x="260" y="260" width="240" height="40" as="geometry" />
        </mxCell>
        <mxCell id="slpt_HafG_ylR43de846-23" value="" style="endArrow=none;dashed=1;html=1;rounded=0;entryX=1;entryY=0.75;entryDx=0;entryDy=0;exitX=0.5;exitY=0;exitDx=0;exitDy=0;fillColor=#dae8fc;strokeColor=#6c8ebf;" edge="1" parent="1" source="slpt_HafG_ylR43de846-24">
          <mxGeometry width="50" height="50" relative="1" as="geometry">
            <mxPoint x="402.2" y="453" as="sourcePoint" />
            <mxPoint x="402.2" y="395.9999999999999" as="targetPoint" />
          </mxGeometry>
        </mxCell>
        <mxCell id="slpt_HafG_ylR43de846-24" value="&lt;font&gt;Polysilicon&lt;/font&gt;&lt;div&gt;&lt;font&gt;Channel&lt;/font&gt;&lt;/div&gt;" style="text;html=1;align=center;verticalAlign=middle;whiteSpace=wrap;rounded=0;fontSize=10;fontFamily=Pretendard;fontSource=https%3A%2F%2Fcdn.jsdelivr.net%2Fgh%2FProject-Noonnu%2Fnoonfonts_2107%401.1%2FPretendard-Regular.woff;" vertex="1" parent="1">
          <mxGeometry x="372" y="464" width="60" height="30" as="geometry" />
        </mxCell>
        <mxCell id="slpt_HafG_ylR43de846-25" value="" style="endArrow=none;dashed=1;html=1;rounded=0;entryX=0.972;entryY=0.536;entryDx=0;entryDy=0;fillColor=#f5f5f5;strokeColor=#666666;entryPerimeter=0;" edge="1" parent="1">
          <mxGeometry width="50" height="50" relative="1" as="geometry">
            <mxPoint x="440" y="450" as="sourcePoint" />
            <mxPoint x="406.82000000000005" y="395.99" as="targetPoint" />
            <Array as="points">
              <mxPoint x="407" y="450" />
            </Array>
          </mxGeometry>
        </mxCell>
        <mxCell id="slpt_HafG_ylR43de846-26" value="&lt;font&gt;Tunnel&amp;nbsp;&lt;/font&gt;&lt;span style=&quot;background-color: transparent; color: light-dark(rgb(0, 0, 0), rgb(255, 255, 255));&quot;&gt;Oxide&lt;/span&gt;" style="text;html=1;align=center;verticalAlign=middle;whiteSpace=wrap;rounded=0;fontSize=10;fontFamily=Pretendard;fontSource=https%3A%2F%2Fcdn.jsdelivr.net%2Fgh%2FProject-Noonnu%2Fnoonfonts_2107%401.1%2FPretendard-Regular.woff;" vertex="1" parent="1">
          <mxGeometry x="441" y="443" width="60" height="15" as="geometry" />
        </mxCell>
        <mxCell id="slpt_HafG_ylR43de846-27" value="" style="endArrow=none;dashed=1;html=1;rounded=0;entryX=0.972;entryY=0.536;entryDx=0;entryDy=0;fillColor=#fff2cc;strokeColor=#d6b656;entryPerimeter=0;" edge="1" parent="1">
          <mxGeometry width="50" height="50" relative="1" as="geometry">
            <mxPoint x="445.17999999999995" y="426.01" as="sourcePoint" />
            <mxPoint x="412" y="392.99" as="targetPoint" />
            <Array as="points">
              <mxPoint x="412.17999999999995" y="426.01" />
            </Array>
          </mxGeometry>
        </mxCell>
        <mxCell id="slpt_HafG_ylR43de846-28" value="&lt;font&gt;Silicon Nitride (Charge Trap)&lt;/font&gt;" style="text;html=1;align=center;verticalAlign=middle;whiteSpace=wrap;rounded=0;fontSize=10;fontFamily=Pretendard;fontSource=https%3A%2F%2Fcdn.jsdelivr.net%2Fgh%2FProject-Noonnu%2Fnoonfonts_2107%401.1%2FPretendard-Regular.woff;" vertex="1" parent="1">
          <mxGeometry x="447" y="418" width="130" height="15" as="geometry" />
        </mxCell>
        <mxCell id="slpt_HafG_ylR43de846-29" value="" style="endArrow=none;dashed=1;html=1;rounded=0;fillColor=#e1d5e7;strokeColor=#9673a6;" edge="1" parent="1">
          <mxGeometry width="50" height="50" relative="1" as="geometry">
            <mxPoint x="450.17999999999995" y="408" as="sourcePoint" />
            <mxPoint x="417" y="392.99" as="targetPoint" />
            <Array as="points">
              <mxPoint x="417.17999999999995" y="408" />
            </Array>
          </mxGeometry>
        </mxCell>
        <mxCell id="slpt_HafG_ylR43de846-30" value="&lt;font&gt;Blocking Oxide&lt;/font&gt;" style="text;html=1;align=center;verticalAlign=middle;whiteSpace=wrap;rounded=0;fontSize=10;fontFamily=Pretendard;fontSource=https%3A%2F%2Fcdn.jsdelivr.net%2Fgh%2FProject-Noonnu%2Fnoonfonts_2107%401.1%2FPretendard-Regular.woff;" vertex="1" parent="1">
          <mxGeometry x="451" y="400" width="70" height="15" as="geometry" />
        </mxCell>
        <mxCell id="slpt_HafG_ylR43de846-31" value="" style="endArrow=none;html=1;rounded=0;strokeWidth=1;" edge="1" parent="1" target="slpt_HafG_ylR43de846-32">
          <mxGeometry width="50" height="50" relative="1" as="geometry">
            <mxPoint x="379.86" y="148" as="sourcePoint" />
            <mxPoint x="379.86" y="78" as="targetPoint" />
          </mxGeometry>
        </mxCell>
        <mxCell id="slpt_HafG_ylR43de846-34" value="Drain" style="edgeLabel;html=1;align=center;verticalAlign=middle;resizable=0;points=[];fontFamily=Pretendard;fontSource=https%3A%2F%2Fcdn.jsdelivr.net%2Fgh%2FProject-Noonnu%2Fnoonfonts_2107%401.1%2FPretendard-Regular.woff;" vertex="1" connectable="0" parent="slpt_HafG_ylR43de846-31">
          <mxGeometry x="0.536" y="1" relative="1" as="geometry">
            <mxPoint as="offset" />
          </mxGeometry>
        </mxCell>
        <mxCell id="slpt_HafG_ylR43de846-32" value="" style="shape=waypoint;sketch=0;fillStyle=solid;size=6;pointerEvents=1;points=[];fillColor=none;resizable=0;rotatable=0;perimeter=centerPerimeter;snapToPoint=1;" vertex="1" parent="1">
          <mxGeometry x="370" y="73" width="20" height="20" as="geometry" />
        </mxCell>
        <mxCell id="slpt_HafG_ylR43de846-36" value="" style="endArrow=none;html=1;rounded=0;entryX=1;entryY=0.5;entryDx=0;entryDy=0;" edge="1" parent="1" target="slpt_HafG_ylR43de846-22">
          <mxGeometry width="50" height="50" relative="1" as="geometry">
            <mxPoint x="320" y="440" as="sourcePoint" />
            <mxPoint x="376.1199999999999" y="403.2400000000001" as="targetPoint" />
            <Array as="points">
              <mxPoint x="380" y="440" />
            </Array>
          </mxGeometry>
        </mxCell>
        <mxCell id="slpt_HafG_ylR43de846-39" value="Source" style="edgeLabel;html=1;align=center;verticalAlign=middle;resizable=0;points=[];fontFamily=Pretendard;fontSource=https%3A%2F%2Fcdn.jsdelivr.net%2Fgh%2FProject-Noonnu%2Fnoonfonts_2107%401.1%2FPretendard-Regular.woff;" vertex="1" connectable="0" parent="slpt_HafG_ylR43de846-36">
          <mxGeometry x="-0.3417" relative="1" as="geometry">
            <mxPoint as="offset" />
          </mxGeometry>
        </mxCell>
        <mxCell id="slpt_HafG_ylR43de846-38" value="" style="shape=waypoint;sketch=0;fillStyle=solid;size=6;pointerEvents=1;points=[];fillColor=none;resizable=0;rotatable=0;perimeter=centerPerimeter;snapToPoint=1;" vertex="1" parent="1">
          <mxGeometry x="313" y="430" width="20" height="20" as="geometry" />
        </mxCell>
      </root>
    </mxGraphModel>
  </diagram>
</mxfile>
